<?xml version="1.0" encoding="iso-8859-1"?>
<!-- Generator: Adobe Illustrator 17.1.0, SVG Export Plug-In . SVG Version: 6.00 Build 0)  -->
<!DOCTYPE svg PUBLIC "-//W3C//DTD SVG 1.1//EN" "http://www.w3.org/Graphics/SVG/1.1/DTD/svg11.dtd">
<svg version="1.1" id="Capa_1" xmlns="http://www.w3.org/2000/svg" xmlns:xlink="http://www.w3.org/1999/xlink" x="0px" y="0px"
	 viewBox="0 0 353.926 353.926" style="enable-background:new 0 0 353.926 353.926;" xml:space="preserve">
<path d="M210.286,344.926c0,4.971-4.029,9-9,9h-48.65c-4.971,0-9-4.029-9-9s4.029-9,9-9h48.65
	C206.257,335.926,210.286,339.955,210.286,344.926z M289.677,258.958v25.928c0,19.259-15.67,34.928-34.931,34.928H99.177
	c-19.259,0-34.928-15.668-34.928-34.928v-25.928c0-4.971,4.029-9,9-9h2.394c-0.021-0.258-0.033-0.52-0.033-0.784v-24.118
	c-0.013-0.535,0.023-1.066,0.105-1.588c0.204-1.329,0.699-2.561,1.418-3.631c0.705-1.055,1.639-1.969,2.767-2.659
	c0.457-0.281,0.94-0.522,1.446-0.719c3.564-1.483,7.107-3.016,10.605-4.586V101.909c0-17.877,11.375-33.581,27.599-39.623
	c-0.019-0.492-0.028-0.984-0.028-1.48V38.578C119.521,17.306,136.827,0,158.098,0h37.725C217.095,0,234.4,17.306,234.4,38.578
	v22.229c0,0.495-0.01,0.988-0.028,1.478c6.395,2.378,12.129,6.28,16.702,11.351c0.16-0.3,0.318-0.599,0.478-0.899
	c2.318-4.396,7.761-6.081,12.16-3.76c4.396,2.319,6.079,7.764,3.76,12.16c-16.845,31.926-41.307,61.508-72.707,87.923
	c-25.063,21.083-53.512,39.294-84.813,54.313v26.586h134.02V141.64c0-4.971,4.029-9,9-9s9,4.029,9,9v108.318h18.706
	C285.647,249.958,289.677,253.987,289.677,258.958z M137.521,60.807c0,1.842,0.243,3.629,0.699,5.33
	c0.073,0.22,0.138,0.444,0.193,0.672c2.574,8.428,10.424,14.576,19.684,14.576h37.725c9.259,0,17.109-6.146,19.685-14.573
	c0.057-0.231,0.122-0.458,0.195-0.68c0.455-1.699,0.698-3.484,0.698-5.325V38.578C216.4,27.231,207.169,18,195.822,18h-37.725
	c-11.346,0-20.576,9.231-20.576,20.578V60.807z M109.951,203.272c56.184-28.521,102.335-68.15,131.162-112.739
	c-2.612-4.871-6.75-8.658-11.666-10.83c-6.622,11.738-19.213,19.681-33.625,19.681h-37.725c-14.411,0-27.002-7.944-33.624-19.682
	c-8.604,3.8-14.522,12.438-14.522,22.207V203.272z M271.677,267.958h-18.57c-0.046,0-0.091,0.001-0.136,0.001h-152.02
	c-0.045,0-0.09,0-0.136-0.001H82.249v16.928c0,9.334,7.594,16.928,16.928,16.928h155.569c9.336,0,16.931-7.594,16.931-16.928
	V267.958z"/>
<g>
</g>
<g>
</g>
<g>
</g>
<g>
</g>
<g>
</g>
<g>
</g>
<g>
</g>
<g>
</g>
<g>
</g>
<g>
</g>
<g>
</g>
<g>
</g>
<g>
</g>
<g>
</g>
<g>
</g>
</svg>
