<?xml version="1.0" encoding="iso-8859-1"?>
<!-- Generator: Adobe Illustrator 18.0.0, SVG Export Plug-In . SVG Version: 6.00 Build 0)  -->
<!DOCTYPE svg PUBLIC "-//W3C//DTD SVG 1.1//EN" "http://www.w3.org/Graphics/SVG/1.1/DTD/svg11.dtd">
<svg xmlns="http://www.w3.org/2000/svg" xmlns:xlink="http://www.w3.org/1999/xlink" version="1.1" id="Capa_1" x="0px" y="0px" viewBox="0 0 490.126 490.126" style="enable-background:new 0 0 490.126 490.126;" xml:space="preserve" width="512px" height="512px">
<g>
	<path d="M365.773,167.315c0-66.973-54.486-121.458-121.461-121.458c-66.971,0-121.456,54.486-121.456,121.459   c0,66.973,54.486,121.459,121.458,121.459C311.287,288.774,365.773,234.288,365.773,167.315z M143.857,167.315   c0-55.393,45.064-100.459,100.458-100.459c55.393,0,100.458,45.065,100.458,100.458c0,55.393-45.065,100.459-100.458,100.46   C188.922,267.774,143.857,222.708,143.857,167.315z" fill="#054752"/>
	<path d="M301.846,109.785c-4.101-4.1-10.748-4.099-14.85,0L186.785,209.996c-4.1,4.101-4.1,10.749,0,14.85   c2.051,2.05,4.737,3.075,7.425,3.075c2.687,0,5.374-1.025,7.425-3.075l100.212-100.211   C305.946,120.534,305.946,113.885,301.846,109.785z" fill="#054752"/>
	<path d="M207.811,162.913c17.702,0,32.103-14.401,32.103-32.104c0-17.701-14.402-32.102-32.104-32.102   c-17.701,0-32.101,14.401-32.101,32.102C175.708,148.512,190.109,162.913,207.811,162.913z M207.811,119.708   c6.122,0,11.103,4.98,11.103,11.102c0,6.122-4.981,11.104-11.103,11.104c-6.122,0-11.102-4.981-11.102-11.104   C196.708,124.688,201.689,119.708,207.811,119.708z" fill="#054752"/>
	<path d="M280.82,171.717c-17.702,0-32.103,14.4-32.103,32.101c0,17.703,14.401,32.105,32.103,32.105   c17.701,0,32.102-14.402,32.102-32.105C312.922,186.117,298.521,171.717,280.82,171.717z M280.82,214.923   c-6.122,0-11.103-4.981-11.103-11.105c0-6.121,4.981-11.101,11.103-11.101c6.122,0,11.102,4.98,11.102,11.101   C291.922,209.941,286.941,214.923,280.82,214.923z" fill="#054752"/>
	<path d="M335.532,331.663c50.551-71.872,76.182-127.119,76.182-164.264C411.714,75.095,336.619,0,244.315,0   s-167.4,75.095-167.4,167.399c0,37.175,25.674,92.483,76.307,164.439C76.489,341.747,0.711,366.225,0.711,408.157   c0,24.45,26.254,45.397,75.925,60.578c45.136,13.794,104.952,21.392,168.427,21.392c63.476,0,123.291-7.597,168.427-21.392   c49.67-15.18,75.925-36.128,75.925-60.578C489.415,365.957,412.939,341.474,335.532,331.663z M244.315,21   c80.725,0,146.399,65.674,146.399,146.399c0,33.206-26.416,87.802-76.392,157.884c-28.172,39.505-56.643,73.709-70.008,89.35   c-13.343-15.613-41.744-49.73-69.901-89.203c-50.045-70.154-76.498-124.801-76.498-158.032C97.916,86.674,163.59,21,244.315,21z    M245.064,469.126c-138.382,0-223.353-35.51-223.353-60.969c0-10.314,14.561-22.513,38.949-32.634   c26.548-11.017,64.216-19.557,106.578-24.211c35.611,48.384,68.865,85.923,69.227,86.331c1.993,2.243,4.85,3.526,7.85,3.526   c3,0,5.857-1.284,7.85-3.526c0.362-0.409,33.684-38.024,69.338-86.482c42.715,4.598,80.732,13.133,107.559,24.194   c24.642,10.161,39.354,22.422,39.354,32.801C468.415,433.616,383.445,469.126,245.064,469.126z" fill="#054752"/>
</g>
<g>
</g>
<g>
</g>
<g>
</g>
<g>
</g>
<g>
</g>
<g>
</g>
<g>
</g>
<g>
</g>
<g>
</g>
<g>
</g>
<g>
</g>
<g>
</g>
<g>
</g>
<g>
</g>
<g>
</g>
</svg>
