<?xml version="1.0" encoding="iso-8859-1"?>
<!-- Generator: Adobe Illustrator 17.1.0, SVG Export Plug-In . SVG Version: 6.00 Build 0)  -->
<!DOCTYPE svg PUBLIC "-//W3C//DTD SVG 1.1//EN" "http://www.w3.org/Graphics/SVG/1.1/DTD/svg11.dtd">
<svg xmlns="http://www.w3.org/2000/svg" xmlns:xlink="http://www.w3.org/1999/xlink" version="1.1" id="Capa_1" x="0px" y="0px" viewBox="0 0 434.468 434.468" style="enable-background:new 0 0 434.468 434.468;" xml:space="preserve" width="512px" height="512px">
<path d="M121.122,197.95H58.265c-4.971,0-9-4.029-9-9s4.029-9,9-9h62.857c4.971,0,9,4.029,9,9S126.093,197.95,121.122,197.95z   M94.319,234.539h35.746c4.971,0,9-4.029,9-9s-4.029-9-9-9H94.319c-4.971,0-9,4.029-9,9S89.349,234.539,94.319,234.539z   M48.621,225.539c0-4.971-4.029-9-9-9H18.156c-4.971,0-9,4.029-9,9s4.029,9,9,9h21.465  C44.592,234.539,48.621,230.509,48.621,225.539z M166.892,152.363c0-4.971-4.029-9-9-9H9c-4.971,0-9,4.029-9,9s4.029,9,9,9h148.892  C162.862,161.363,166.892,157.333,166.892,152.363z M434.409,263.76l-0.037,8.281c-0.025,5.302-0.054,11.335-0.054,18.688  c0,14.555-11.165,27.069-26.564,31.057c-3.763,28.057-27.858,49.764-56.929,49.764c-31.671,0-57.438-25.767-57.438-57.439  c0-31.671,25.767-57.438,57.438-57.438c27.847,0,51.129,19.92,56.347,46.257c5.447-2.586,9.146-7.183,9.146-12.201  c0-7.387,0.028-13.447,0.054-18.773l0.037-8.279c0.049-10.686,0.116-25.321-0.039-32.191c-0.049-2.183-0.11-4.205-0.197-6.091  h-222.13c-24.436,0-33.425-21.789-36.379-28.949c-1.896-4.595,0.292-9.857,4.887-11.752c4.602-1.894,9.858,0.293,11.752,4.887  c5.152,12.487,11.056,17.814,19.74,17.814h218.937c-3.772-8.909-11.869-16.082-29.658-31.843c-3.58-3.171-7.511-6.654-11.827-10.528  c-3.108-2.788-6.23-5.771-9.249-8.655c-4.476-4.276-9.104-8.698-13.974-12.777c-4.209-3.526-8.194-6.881-11.983-10.072  c-47.992-40.409-62.476-52.604-104.723-52.604H65.867c-10.331,0-19.06,6.586-19.06,14.382v21.486c0,4.971-4.029,9-9,9s-9-4.029-9-9  V95.299c0-17.855,16.625-32.382,37.06-32.382h165.698c48.815,0,67.195,15.476,116.316,56.834c3.778,3.182,7.751,6.527,11.948,10.042  c5.32,4.457,10.165,9.085,14.85,13.561c3.053,2.917,5.936,5.671,8.835,8.271c4.287,3.847,8.189,7.305,11.743,10.453  c30.957,27.428,38.313,33.944,39.108,69C434.526,238.194,434.462,252.37,434.409,263.76z M390.265,314.235  c-0.003-0.12-0.003-0.239-0.001-0.357c-0.127-21.639-17.77-39.204-39.438-39.204c-21.746,0-39.438,17.692-39.438,39.438  c0,21.747,17.691,39.439,39.438,39.439C372.531,353.551,390.197,335.925,390.265,314.235z M112.467,305.111h-0.031  c-4.971,0-8.984,4.029-8.984,9s4.045,9,9.016,9s9-4.029,9-9S117.438,305.111,112.467,305.111z M350.841,305.111h-0.035  c-4.971,0-8.982,4.029-8.982,9s4.047,9,9.018,9s9-4.029,9-9S355.812,305.111,350.841,305.111z M274.481,314.111c0,4.971-4.029,9-9,9  h-96.295c-4.333,27.411-28.125,48.439-56.735,48.439c-29.052,0-53.135-21.679-56.92-49.711  c-10.473-2.634-19.175-9.201-23.655-18.197c-2.036-4.088-3.068-8.432-3.068-12.913v-26.665c0-4.971,4.029-9,9-9s9,4.029,9,9v26.665  c0,1.67,0.397,3.314,1.181,4.888c1.569,3.15,4.47,5.734,8.1,7.406c5.181-26.383,28.484-46.35,56.363-46.35  c28.61,0,52.402,21.028,56.735,48.438h96.295C270.452,305.111,274.481,309.141,274.481,314.111z M151.891,314.111  c0-21.746-17.692-39.438-39.439-39.438c-21.71,0-39.379,17.632-39.438,39.329c0,0.041,0,0.081,0,0.121  c0.007,21.742,17.695,39.428,39.438,39.428C134.198,353.551,151.891,335.858,151.891,314.111z" fill="#054752"/>
<g>
</g>
<g>
</g>
<g>
</g>
<g>
</g>
<g>
</g>
<g>
</g>
<g>
</g>
<g>
</g>
<g>
</g>
<g>
</g>
<g>
</g>
<g>
</g>
<g>
</g>
<g>
</g>
<g>
</g>
</svg>
